<svg width="34" height="28" viewBox="0 0 34 28" fill="none" xmlns="http://www.w3.org/2000/svg">
<path d="M9.84981 0.00124592C8.10921 0.323635 7.19935 5.01007 8.71051 6.06766L20.4517 10.8917L18.264 11.1472C13.3112 11.2652 8.29909 10.8524 3.38189 9.90487C2.44038 9.72402 1.50678 10.2312 1.14284 11.1119C0.834279 11.8549 0.466379 12.7592 0.141994 13.573C-0.305025 14.6975 0.343745 15.9673 1.52261 16.2544C4.46581 16.9699 7.46439 17.4142 10.4313 17.5911C13.6831 17.7837 16.9269 17.4967 20.1787 17.5478C18.0702 18.9553 12.3025 21.0941 11.1038 23.2722C10.4986 24.373 10.459 28.1709 12.5833 27.994C18.8377 25.2852 25.982 21.6327 32.1889 16.2229C33.3084 15.2479 35.7769 12.0594 31.904 10.0267C25.3728 6.59842 10.4274 -0.104906 9.84981 0.00124592Z" fill="white"/>
</svg>
