<svg width="48" height="48" viewBox="0 0 48 48" fill="none" xmlns="http://www.w3.org/2000/svg">
<circle cx="24" cy="24" r="24" fill="white"/>
<path d="M14.8686 30.8686C14.2438 31.4935 14.2438 32.5065 14.8686 33.1314C15.4935 33.7562 16.5065 33.7562 17.1314 33.1314L14.8686 30.8686ZM34.5706 15.0294C34.5706 14.1458 33.8542 13.4294 32.9706 13.4294L18.5706 13.4294C17.6869 13.4294 16.9706 14.1458 16.9706 15.0294C16.9706 15.9131 17.6869 16.6294 18.5706 16.6294H31.3706V29.4294C31.3706 30.3131 32.0869 31.0294 32.9706 31.0294C33.8542 31.0294 34.5706 30.3131 34.5706 29.4294L34.5706 15.0294ZM16 32L17.1314 33.1314L34.1019 16.1608L32.9706 15.0294L31.8392 13.8981L14.8686 30.8686L16 32Z" fill="#323B42"/>
</svg>
