<svg width="30" height="18" viewBox="0 0 30 18" fill="none" xmlns="http://www.w3.org/2000/svg">
<rect width="30" height="18" rx="9" fill="#0E14A5"/>
<path d="M20.2417 6.60359C20.1238 5.96678 18.4092 5.63391 18.0223 6.18677L16.2574 10.4823L16.1639 9.68197C16.1208 7.86996 16.2718 6.03625 16.6185 4.23728C16.6846 3.89282 16.4991 3.55126 16.1769 3.41811C15.905 3.30522 15.5742 3.17063 15.2764 3.05195C14.8651 2.88841 14.4005 3.12576 14.2955 3.55705C14.0337 4.63383 13.8712 5.73088 13.8064 6.81634C13.7359 8.00601 13.8409 9.19278 13.8222 10.3825C13.3073 9.61105 12.5248 7.50091 11.728 7.06238C11.3252 6.84094 9.93575 6.82647 10.0005 7.60366C10.9915 9.89182 12.3278 12.5056 14.307 14.7764C14.6637 15.186 15.8302 16.0891 16.5739 14.6722C17.8281 12.2827 20.2806 6.81489 20.2417 6.60359Z" fill="white"/>
</svg>

