<svg width="34" height="28" viewBox="0 0 34 28" fill="none" xmlns="http://www.w3.org/2000/svg">
<path d="M24.1502 0.00124592C25.8908 0.323635 26.8007 5.01007 25.2895 6.06766L13.5483 10.8917L15.736 11.1472C20.6888 11.2652 25.7009 10.8524 30.6181 9.90487C31.5596 9.72402 32.4932 10.2312 32.8572 11.1119C33.1657 11.8549 33.5336 12.7592 33.858 13.573C34.305 14.6975 33.6563 15.9673 32.4774 16.2544C29.5342 16.9699 26.5356 17.4142 23.5687 17.5911C20.3169 17.7837 17.0731 17.4967 13.8213 17.5478C15.9298 18.9553 21.6975 21.0941 22.8962 23.2722C23.5014 24.373 23.541 28.1709 21.4167 27.994C15.1623 25.2852 8.01797 21.6327 1.81113 16.2229C0.691608 15.2479 -1.77688 12.0594 2.09596 10.0267C8.62718 6.59842 23.5726 -0.104906 24.1502 0.00124592Z" fill="white"/>
</svg>
