<svg width="216" height="194" viewBox="0 0 216 194" fill="none" xmlns="http://www.w3.org/2000/svg">
<path d="M169.125 109.192C152.945 117.182 136.115 109.152 124.495 97.2623L105.375 77.7023C84.3553 56.2123 65.0653 58.6023 59.7953 51.6023C58.8553 50.3523 59.1553 46.2223 60.5053 45.2923C72.6053 36.9123 94.0453 37.1223 109.095 37.0023C141.615 36.7623 173.805 54.9823 179.935 87.7823C181.665 97.0223 177.125 105.242 169.125 109.192Z" fill="white"/>
<path d="M59.0712 152.132C48.5412 142.632 49.5112 127.942 46.5812 112.432C44.2712 100.162 35.2412 97.1418 36.0512 92.4618C37.0112 86.9718 51.2112 84.0318 61.9612 89.1718C74.9912 95.4018 84.9512 107.022 88.8012 120.972C92.0212 132.622 89.2712 145.022 80.3012 152.462C73.7812 157.862 65.5812 158.002 59.0712 152.122V152.132Z" fill="white"/>
</svg>
