<svg width="30" height="30" viewBox="0 0 30 30" fill="none" xmlns="http://www.w3.org/2000/svg">
<circle cx="15" cy="15" r="15" fill="white"/>
<path d="M9.29289 19.2929C8.90237 19.6834 8.90237 20.3166 9.29289 20.7071C9.68342 21.0976 10.3166 21.0976 10.7071 20.7071L10 20L9.29289 19.2929ZM21.6066 9.3934C21.6066 8.84111 21.1589 8.3934 20.6066 8.3934L11.6066 8.3934C11.0543 8.3934 10.6066 8.84111 10.6066 9.3934C10.6066 9.94568 11.0543 10.3934 11.6066 10.3934L19.6066 10.3934L19.6066 18.3934C19.6066 18.9457 20.0543 19.3934 20.6066 19.3934C21.1589 19.3934 21.6066 18.9457 21.6066 18.3934L21.6066 9.3934ZM10 20L10.7071 20.7071L21.3137 10.1005L20.6066 9.3934L19.8995 8.68629L9.29289 19.2929L10 20Z" fill="#323B42"/>
</svg>
