<svg width="390" height="338" viewBox="0 0 390 338" fill="none" xmlns="http://www.w3.org/2000/svg">
<path d="M259.5 316.96C278.5 293.964 256.5 275.996 282.5 252C308.5 228.004 331.5 244.473 360.5 231.475C389.5 218.477 390 190.982 390 190.982V43.0089C390 43.0089 388.5 26.5119 375.5 14.0141C362.5 1.51638 343.5 0.0166483 343.5 0.0166483H48.5004C48.5004 0.0166483 30.9986 -0.983219 15.9985 12.5144C0.998467 26.012 0 41.0094 0 41.0094V297.963C0 297.963 1.5 313.46 15.5001 324.958C29.5001 336.456 48.5004 337.956 48.5004 337.956H220.999C220.999 337.956 240.499 339.956 259.5 316.96Z" fill="black"/>
</svg>
