<svg width="23" height="23" viewBox="0 0 23 23" fill="none" xmlns="http://www.w3.org/2000/svg">
<g opacity="0.5">
<path d="M23 13.1429V11.5H18.0714V19.7143H19.7143V16.4286H22.1799V14.7857H19.7143V13.1429H23Z" fill="white"/>
<path d="M13.963 19.7143H10.6773V11.5H13.963C15.3587 11.5 16.4286 12.5672 16.4286 13.963V17.2487C16.4286 18.6445 15.3614 19.7143 13.963 19.7143ZM12.3227 18.0714H13.9656C14.4598 18.0714 14.7857 17.7429 14.7857 17.2513V13.9656C14.7857 13.4714 14.4571 13.1455 13.9656 13.1455H12.3227V18.0741V18.0714Z" fill="white"/>
<path d="M3.28571 11.5V19.7143H4.92857V17.2487H7.39417C8.2984 17.2487 9.03703 16.5101 9.03703 15.6058V13.1429C9.03703 12.2386 8.2984 11.5 7.39417 11.5H3.28571ZM4.92857 15.6058V13.1429H7.39417V15.6058H4.92857Z" fill="white"/>
<path d="M16.4286 9.85714V6.57143C16.4286 6.32434 16.3471 6.16137 16.1815 5.99577L10.4328 0.247086C10.2698 0.0841143 10.1042 0 9.85714 0H1.64286C0.738629 0 0 0.738629 0 1.64286V21.3571C0 22.2614 0.738629 23 1.64286 23H14.7857V21.3571H1.64286V1.64286H8.21429V6.57143C8.21429 7.47566 8.95291 8.21429 9.85714 8.21429H14.7857V9.85714H16.4286ZM9.85714 6.57143V1.97143L14.4571 6.57143H9.85714Z" fill="white"/>
</g>
</svg>
