<svg width="18" height="21" viewBox="0 0 18 21" fill="none" xmlns="http://www.w3.org/2000/svg">
<path opacity="0.5" d="M4.80936 19.2466H13.1906V14.4745H4.80936V19.2466ZM13.339 8.76407H15.2654V10.5147H13.339V8.76407ZM3.07905 16.2091H2.02974C1.47328 16.2091 0.967172 15.9786 0.598852 15.6059H0.596202C0.230531 15.2306 0 14.7185 0 14.1555V8.57373C0 8.01072 0.227882 7.49866 0.596202 7.12601H0.598852C0.967172 6.75067 1.47328 6.52011 2.02974 6.52011H3.07905V0H11.9373L12.5494 0.257373L14.9209 2.65684V6.52547H15.9703C16.5267 6.52547 17.0328 6.75603 17.4011 7.12869H17.4038C17.7695 7.50402 18 8.01609 18 8.57909V14.1609C18 14.7239 17.7721 15.2359 17.4038 15.6086H17.4011C17.0328 15.9839 16.5267 16.2145 15.9703 16.2145H14.9209V21H3.07905V16.2091ZM15.9703 14.4584C16.0524 14.4584 16.1292 14.4263 16.1822 14.37C16.2352 14.3164 16.2697 14.2413 16.2697 14.1555V8.57373C16.2697 8.49062 16.2379 8.41287 16.1822 8.35925C16.1292 8.30563 16.0551 8.27078 15.9703 8.27078H2.02709C1.94494 8.27078 1.8681 8.30295 1.8151 8.35925C1.76211 8.41287 1.72766 8.48794 1.72766 8.57373V14.1555C1.72766 14.2386 1.75946 14.3164 1.8151 14.37C1.8681 14.4236 1.94229 14.4584 2.02709 14.4584H3.0764V12.7212H14.9183V14.4584H15.9703ZM4.80936 6.52547H13.1906V3.38338L11.5796 1.75335H4.80936V6.52547Z" fill="white"/>
</svg>
