<svg width="20" height="23" viewBox="0 0 20 23" fill="none" xmlns="http://www.w3.org/2000/svg">
<g clip-path="url(#clip0_1703_4887)">
<path fill-rule="evenodd" clip-rule="evenodd" d="M8.95841 3.7363V2.0094H6.51405V0H13.4834V2.0094H11.039V3.7363C16.0702 4.23988 20 8.35203 20 13.3411C20 18.6717 15.5183 23 9.99873 23C4.47921 23 -0.0025444 18.6717 -0.0025444 13.3411C-0.0025444 8.34957 3.92725 4.23988 8.95841 3.7363Z" fill="white"/>
<path d="M9.99787 13.2626V5.80225C5.7603 5.80225 2.27308 9.17008 2.27308 13.2626C2.27308 17.3551 5.7603 20.7229 9.99787 20.7229C14.2354 20.7229 17.7227 17.3551 17.7227 13.2626C17.7227 13.2577 17.7227 13.2503 17.7227 13.2454L9.99787 13.2626Z" fill="#FF337A"/>
</g>
<defs>
<clipPath id="clip0_1703_4887">
<rect width="20" height="23" fill="white" transform="matrix(-1 0 0 1 20 0)"/>
</clipPath>
</defs>
</svg>
